FILE "Boundary Gate - Daughter of Kingdom (1997)(NEC Home Electronics)(JP)[FXNHE620].img" BINARY
  TRACK 01 AUDIO
    INDEX 01 00:00:00
  TRACK 02 MODE1/2352
    PREGAP 00:03:00
    INDEX 01 00:55:45
  TRACK 03 AUDIO
    PREGAP 00:02:00
    INDEX 01 06:58:72
  TRACK 04 AUDIO
    INDEX 01 07:39:40
  TRACK 05 AUDIO
    INDEX 01 08:26:58
  TRACK 06 AUDIO
    INDEX 01 08:33:48
  TRACK 07 AUDIO
    INDEX 01 08:53:15
  TRACK 08 AUDIO
    INDEX 01 09:04:48
  TRACK 09 AUDIO
    INDEX 01 09:08:68
  TRACK 10 AUDIO
    INDEX 01 09:45:43
  TRACK 11 AUDIO
    INDEX 01 10:31:22
  TRACK 12 AUDIO
    INDEX 01 10:35:42
  TRACK 13 AUDIO
    INDEX 01 11:06:71
  TRACK 14 AUDIO
    INDEX 01 11:11:16
  TRACK 15 AUDIO
    INDEX 01 11:16:03
  TRACK 16 AUDIO
    INDEX 01 11:21:27
  TRACK 17 AUDIO
    INDEX 01 11:31:40
  TRACK 18 AUDIO
    INDEX 01 11:47:30
  TRACK 19 AUDIO
    INDEX 01 12:02:48
  TRACK 20 AUDIO
    INDEX 01 12:34:24
  TRACK 21 AUDIO
    INDEX 01 13:04:73
  TRACK 22 AUDIO
    INDEX 01 13:38:28
  TRACK 23 AUDIO
    INDEX 01 13:49:27
  TRACK 24 AUDIO
    INDEX 01 14:04:71
  TRACK 25 AUDIO
    INDEX 01 14:19:27
  TRACK 26 AUDIO
    INDEX 01 14:43:73
  TRACK 27 AUDIO
    INDEX 01 15:17:06
  TRACK 28 AUDIO
    INDEX 01 15:51:42
  TRACK 29 AUDIO
    INDEX 01 16:27:27
  TRACK 30 AUDIO
    INDEX 01 17:01:03
  TRACK 31 AUDIO
    INDEX 01 17:16:69
  TRACK 32 AUDIO
    INDEX 01 17:21:14
  TRACK 33 AUDIO
    INDEX 01 18:21:68
  TRACK 34 AUDIO
    INDEX 01 18:28:53
  TRACK 35 AUDIO
    INDEX 01 19:27:39
  TRACK 36 AUDIO
    INDEX 01 19:39:61
  TRACK 37 AUDIO
    INDEX 01 20:16:72
  TRACK 38 AUDIO
    INDEX 01 20:23:72
  TRACK 39 AUDIO
    INDEX 01 20:55:56
  TRACK 40 AUDIO
    INDEX 01 21:39:20
  TRACK 41 AUDIO
    INDEX 01 21:43:40
  TRACK 42 AUDIO
    INDEX 01 21:49:64
  TRACK 43 AUDIO
    INDEX 01 21:54:26
  TRACK 44 AUDIO
    INDEX 01 22:04:16
  TRACK 45 AUDIO
    INDEX 01 22:13:29
  TRACK 46 AUDIO
    INDEX 01 22:17:49
  TRACK 47 AUDIO
    INDEX 01 22:21:69
  TRACK 48 AUDIO
    INDEX 01 22:26:14
  TRACK 49 AUDIO
    INDEX 01 22:50:60
  TRACK 50 AUDIO
    INDEX 01 22:55:00
  TRACK 51 AUDIO
    INDEX 01 23:52:16
  TRACK 52 AUDIO
    INDEX 01 23:56:36
  TRACK 53 AUDIO
    INDEX 01 24:02:58
  TRACK 54 AUDIO
    INDEX 01 24:10:36
  TRACK 55 AUDIO
    INDEX 01 25:11:32
  TRACK 56 AUDIO
    INDEX 01 25:23:57
  TRACK 57 AUDIO
    INDEX 01 25:29:30
  TRACK 58 AUDIO
    INDEX 01 25:36:70
  TRACK 59 AUDIO
    INDEX 01 25:41:46
  TRACK 60 AUDIO
    INDEX 01 25:56:21
  TRACK 61 AUDIO
    INDEX 01 26:03:49
  TRACK 62 AUDIO
    INDEX 01 26:07:69
  TRACK 63 AUDIO
    INDEX 01 26:19:32
  TRACK 64 AUDIO
    INDEX 01 26:38:58
  TRACK 65 AUDIO
    INDEX 01 27:10:28
  TRACK 66 AUDIO
    INDEX 01 27:14:48
  TRACK 67 AUDIO
    INDEX 01 27:19:40
  TRACK 68 AUDIO
    INDEX 01 27:24:01
  TRACK 69 AUDIO
    INDEX 01 27:28:21
  TRACK 70 AUDIO
    INDEX 01 27:58:50
  TRACK 71 AUDIO
    INDEX 01 28:51:17
  TRACK 72 AUDIO
    INDEX 01 30:27:25
  TRACK 73 AUDIO
    INDEX 01 31:45:06
  TRACK 74 AUDIO
    INDEX 01 32:19:54
  TRACK 75 AUDIO
    INDEX 01 33:11:28
  TRACK 76 AUDIO
    INDEX 01 33:36:14
  TRACK 77 AUDIO
    INDEX 01 33:40:34
  TRACK 78 AUDIO
    INDEX 01 33:46:31
  TRACK 79 AUDIO
    INDEX 01 34:37:64
  TRACK 80 AUDIO
    INDEX 01 35:03:57
  TRACK 81 AUDIO
    INDEX 01 35:23:12
  TRACK 82 AUDIO
    INDEX 01 35:59:07
  TRACK 83 AUDIO
    INDEX 01 36:15:69
  TRACK 84 AUDIO
    INDEX 01 36:54:27
  TRACK 85 AUDIO
    INDEX 01 37:35:13
  TRACK 86 AUDIO
    INDEX 01 38:40:31
  TRACK 87 AUDIO
    INDEX 01 42:28:51
  TRACK 88 AUDIO
    INDEX 01 43:50:64
  TRACK 89 AUDIO
    INDEX 01 43:54:65
  TRACK 90 AUDIO
    INDEX 01 43:58:66
  TRACK 91 AUDIO
    INDEX 01 44:39:34
